<svg width="321" height="426" viewBox="0 0 321 426" fill="none" xmlns="http://www.w3.org/2000/svg">
<path fill-rule="evenodd" clip-rule="evenodd" d="M311.297 10.8974C314.562 11.0191 317.31 10.2464 320.059 9.47358V206.12H321V425.707H320.059V426H1.00322V425.707H0V206.12H1.00322V7.68112C1.47972 7.71009 2.4904 7.76804 2.7211 7.76804C3.32289 7.59419 4.22563 7.59419 4.97785 7.68112C8.27646 8.13852 11.4593 7.65993 14.6281 7.18347L14.6282 7.18346C15.0725 7.11663 15.5167 7.04985 15.9608 6.9857C16.5389 6.91889 17.1171 6.84797 17.6953 6.77705L17.6953 6.77704L17.6954 6.77704L17.6968 6.77687C20.8794 6.38647 24.062 5.99606 27.2446 6.29028C27.9803 6.36997 28.6596 6.49025 29.3301 6.60895L29.3303 6.60898L29.3304 6.609C30.8538 6.87871 32.331 7.14021 34.3159 6.89877C35.5727 6.71724 36.8375 6.54975 38.1029 6.38218C42.2911 5.82758 46.4857 5.27214 50.4141 4.20403C52.6709 3.59554 54.7773 3.42168 57.034 3.50861C57.9368 3.50861 58.689 3.50861 59.5917 3.42168C61.0506 3.27719 62.5094 3.07264 63.9747 2.8672C67.7983 2.33109 71.6656 1.78888 75.69 2.29163C76.4924 2.40754 77.1613 2.21431 77.83 2.02113C78.1643 1.92457 78.4985 1.82801 78.8495 1.77007C79.2334 1.69949 79.6194 1.6254 80.0073 1.55093L80.0074 1.55091C82.9643 0.983303 86.0386 0.393141 89.2306 1.16158C91.6379 1.68314 93.8946 1.85699 96.4523 1.94392C105.931 2.11778 114.807 3.7694 123.383 5.94258C125.64 6.46414 127.445 6.46414 129.552 6.11643C130.628 5.9437 131.657 5.70232 132.676 5.46323L132.676 5.4632L132.676 5.46315C134.221 5.10066 135.743 4.74342 137.375 4.63867C141.588 4.37789 145.8 4.7256 149.863 5.59487C149.936 5.61304 150.012 5.63206 150.089 5.65155C151.122 5.91159 152.483 6.25393 153.323 5.76872C156.239 4.32476 158.898 4.95366 161.656 5.60585L161.658 5.60628L161.669 5.60894C161.895 5.66245 162.122 5.71608 162.35 5.76872C165.961 6.72492 169.271 6.20336 172.129 4.46482C173.183 3.7694 174.537 3.42169 176.192 3.42169C181.307 3.24784 186.272 2.63935 190.635 0.987729C190.911 0.899086 191.193 0.792364 191.485 0.682312C192.621 0.252756 193.892 -0.227536 195.449 0.118457C197.596 0.569519 199.884 0.711759 202.178 0.854425C205.19 1.04169 208.213 1.22969 210.946 2.11778C213.804 3.07398 216.212 3.16091 219.672 2.20471C225.088 0.640023 230.956 1.16159 236.523 2.90013C237.014 3.0623 237.501 3.23708 237.99 3.41238C240.647 4.36464 243.346 5.33226 246.904 4.37789C247.025 4.30772 247.343 4.4075 247.619 4.4943L247.619 4.49435L247.62 4.49476L247.623 4.49559C247.688 4.51585 247.75 4.53534 247.806 4.55175C249.181 5.13687 250.764 5.52105 252.355 5.90717L252.355 5.90721C254.073 6.32415 255.801 6.74338 257.285 7.42035C263.303 10.2889 270.224 11.2451 277.897 9.76738C278.303 9.70867 278.778 9.72927 279.229 9.74883C279.446 9.75822 279.657 9.76738 279.853 9.76738C281.922 9.96129 284.054 9.999 286.194 10.0369C289.811 10.1008 293.451 10.1652 296.854 10.9844C297.154 11.0713 297.756 10.9844 298.057 10.8974C299.201 10.3101 300.452 10.4048 301.719 10.5008C301.953 10.5185 302.186 10.5362 302.42 10.5497C303.925 10.5932 305.392 10.6584 306.859 10.7236C308.325 10.7888 309.793 10.854 311.297 10.8974Z" fill="#FFCB66"/>
</svg>
