<svg width="210" height="80" viewBox="0 0 210 80" fill="none" xmlns="http://www.w3.org/2000/svg">
<g clip-path="url(#clip0_317_93)">
<path opacity="0.2" d="M39.9121 79.9569C61.8954 79.9569 79.7164 62.0868 79.7164 40.0429C79.7164 17.999 61.8954 0.128906 39.9121 0.128906C17.9289 0.128906 0.108032 17.999 0.108032 40.0429C0.108032 62.0868 17.9289 79.9569 39.9121 79.9569Z" fill="#242A30"/>
<path d="M64.7897 21.8064V17.1612C64.7897 14.5805 62.731 12.344 59.9859 12.344C58.6133 12.344 57.4123 12.8601 56.5545 13.8924C51.579 10.6236 45.7455 9.0752 39.9121 9.0752C34.0787 9.0752 28.2454 10.7956 23.2699 13.8924C22.4121 12.8601 21.0395 12.344 19.8385 12.344C17.265 12.344 15.0345 14.4085 15.0345 16.9892V21.6343C11.2599 26.9677 9.02954 33.3333 9.02954 39.8709C9.02954 56.9031 22.9267 70.8386 39.9121 70.8386C56.8975 70.8386 70.7946 56.9031 70.7946 39.8709C70.7946 33.5053 68.5642 27.1397 64.7897 21.8064ZM64.6182 52.6021C64.6182 56.387 61.53 59.6558 57.5839 59.6558H44.8877L48.6621 50.1935H52.2652C53.6378 49.8494 54.8387 48.6451 55.1818 47.2687V37.8064C54.8387 36.0859 53.2947 34.8816 51.4074 34.7096H47.2897C45.2308 34.7096 43.515 36.43 43.515 38.6666H43.3435V49.1612H35.9661V37.8064C35.623 36.0859 34.0787 34.8816 32.1915 34.7096H28.0737C26.0149 34.7096 24.2993 36.43 24.2993 38.6666H24.1278V46.4085H24.2993C24.2993 48.1289 25.5002 49.8494 27.2159 50.1935H30.4758L34.0787 59.6558H21.7257C17.9512 59.6558 14.6914 56.5591 14.6914 52.6021V25.5913L24.1278 20.43H55.0103L64.2751 25.5913L64.6182 52.6021Z" fill="#242A30"/>
<path d="M24.4709 20.4299L15.0345 25.5912V52.6019C15.0345 56.3868 18.1228 59.6557 22.0689 59.6557H34.422L30.8191 50.1933H27.5592C25.8435 49.6772 24.6424 48.1287 24.6424 46.4083H24.4709V38.6664H24.6424C24.6424 36.6019 26.3582 34.7094 28.4171 34.7094H32.5348C34.2505 34.7094 35.7945 36.0857 36.3092 37.8062V49.161H43.6868V38.6664H43.8583C43.8583 36.6019 45.574 34.7094 47.6328 34.7094H51.7505C53.4662 34.7094 55.0103 36.0857 55.525 37.8062V47.2685C55.1818 48.6449 54.1525 49.8492 52.6084 50.1933H49.0054L45.2308 59.6557H57.927C61.7015 59.6557 64.9613 56.5589 64.9613 52.6019V25.4191L55.6967 20.2578H24.4709V20.4299Z" fill="#F6F6F6"/>
<path d="M91.0399 60.3439V46.4084H97.9027C97.7312 48.4729 98.5889 50.5375 99.9615 52.0859C101.162 53.2902 102.535 53.8063 104.251 53.8063C105.452 53.8063 106.653 53.4622 107.339 52.602C108.197 51.7418 108.54 50.7095 108.54 49.5052C108.54 48.3009 108.197 47.0966 107.339 46.4084C105.967 45.2041 104.422 44.1719 102.878 43.4837C99.2753 41.9353 96.1869 40.0429 93.2702 37.4622C91.5545 35.5698 90.5251 32.9891 90.6967 30.4085C90.5251 27.3117 91.7261 24.2149 93.9565 22.1504C96.0154 20.2579 98.7605 19.2257 101.506 19.2257C104.422 19.0536 107.339 20.602 109.055 23.0106V19.5698H115.918V31.9568H109.055C108.883 30.2364 108.197 28.688 106.996 27.4837C105.966 26.4514 104.594 25.9353 103.221 25.9353C102.192 25.9353 101.163 26.2794 100.305 26.9676C99.6185 27.4837 99.1036 28.3439 99.1036 29.3762C99.1036 30.2364 99.4467 31.0966 100.133 31.7848C101.849 33.1611 103.736 34.1934 105.795 34.8816C108.197 35.9138 110.427 37.1182 112.658 38.4945C114.202 39.5268 115.574 41.0751 116.432 42.7956C117.462 44.688 117.805 46.7526 117.805 48.8171C117.976 52.2579 116.775 55.5267 114.373 57.9353C112.143 59.9999 109.226 61.0321 106.138 61.0321C102.878 61.2041 99.79 59.8278 97.9027 57.0751V60.516H91.2115L91.0399 60.3439Z" fill="#242A30"/>
<path d="M119.349 60.3439V53.6342H124.153V26.6234H119.349V19.7417H155.207V32.6449H147.315V26.6234H134.79V36.0858H144.913V42.9675H134.79V53.6342H147.315V47.4406H155.207V60.3439H119.349Z" fill="#242A30"/>
<path d="M209.252 26.4515V19.5698H191.408L183.688 43.4838L175.796 19.5698H158.124V26.4515H161.898V53.4623H158.124V60.1719H173.05V53.4623H169.276V26.4515L180.428 60.344H186.948L197.928 26.4515H198.1V53.4623H194.325V60.1719H209.252V53.4623H205.477V26.4515H209.252Z" fill="#242A30"/>
</g>
<defs>
<clipPath id="clip0_317_93">
<rect width="209.315" height="80" fill="white"/>
</clipPath>
</defs>
</svg>
