<svg width="1375" height="128" viewBox="0 0 1375 128" fill="none" xmlns="http://www.w3.org/2000/svg">
<g filter="url(#filter0_d_304_40)">
<path fill-rule="evenodd" clip-rule="evenodd" d="M1371 0H4V85.071V93V109.725C7.07776 109.924 10.3923 110.122 13.7068 109.725C19.1524 109.043 24.7908 108.652 30.4664 108.259C38.8555 107.678 47.3258 107.091 55.375 105.549C61.5305 104.456 69.1065 104.953 75.9723 105.748C79.05 106.146 82.3646 106.345 85.6791 106.146C89.8896 105.824 93.7908 106.542 97.6326 107.25C98.5432 107.417 99.4504 107.584 100.358 107.736C106.75 108.731 112.905 108.731 119.534 108.432C122.218 108.366 124.901 108.388 127.584 108.41C128.926 108.421 130.267 108.432 131.609 108.432C134.923 108.432 138.001 108.333 139.895 106.643C141.316 105.351 144.393 105.549 147.234 105.848C147.48 105.876 147.725 105.905 147.969 105.934C151.961 106.401 155.78 106.848 160.019 106.941C170.199 107.339 178.722 105.748 187.245 103.859C190.086 103.164 193.164 102.468 196.479 103.164C201.056 104.193 205.633 103.848 210.21 103.504C212.262 103.349 214.314 103.194 216.366 103.164C224.139 103.068 231.692 102.601 239.45 102.121L240.277 102.07C243.829 101.871 247.853 102.368 250.931 102.965C257.133 104.18 263.516 103.879 269.763 103.585C270.671 103.542 271.575 103.5 272.476 103.462C284.076 102.965 295.204 103.561 305.384 105.748C307.353 106.162 309.387 106.226 311.417 106.29C313.293 106.349 315.166 106.408 316.985 106.742C325.745 108.333 334.504 109.625 343.501 110.818C346.539 111.274 349.578 110.811 352.616 110.347C352.892 110.305 353.168 110.263 353.444 110.222C355.362 109.924 357.216 109.545 359.07 109.166C363.395 108.282 367.72 107.398 372.858 107.538C375.226 107.587 377.534 107.662 379.842 107.736C382.151 107.811 384.459 107.886 386.826 107.935C387.194 107.951 387.562 107.971 387.929 107.991C389.924 108.101 391.892 108.209 393.692 107.538C394.166 107.438 395.113 107.339 395.586 107.438C400.94 108.375 406.669 108.449 412.359 108.522C415.727 108.565 419.082 108.608 422.339 108.83C422.646 108.83 422.979 108.84 423.32 108.851C424.029 108.874 424.777 108.897 425.417 108.83C437.491 107.14 448.382 108.234 457.852 111.514C460.187 112.288 462.905 112.768 465.609 113.245C468.113 113.686 470.604 114.125 472.767 114.795C472.858 114.814 472.958 114.837 473.062 114.86C473.496 114.96 473.996 115.074 474.187 114.993C479.786 113.902 484.033 115.009 488.213 116.098C488.983 116.298 489.75 116.498 490.523 116.683C499.283 118.672 508.516 119.268 517.039 117.479C522.484 116.385 526.273 116.485 530.771 117.578C535.071 118.594 539.829 118.809 544.568 119.023C548.178 119.186 551.778 119.349 555.156 119.865C557.606 120.26 559.606 119.711 561.395 119.22C561.853 119.094 562.298 118.972 562.732 118.87C569.598 116.982 577.411 116.286 585.46 116.087C588.065 116.087 590.195 115.689 591.853 114.894C596.351 112.906 601.559 112.309 607.241 113.403C607.607 113.464 607.971 113.527 608.334 113.589C612.673 114.335 616.858 115.054 621.446 113.403C622.768 112.848 624.909 113.239 626.535 113.537C626.657 113.559 626.776 113.581 626.892 113.602C633.284 114.596 639.913 114.993 646.542 114.695C649.11 114.575 651.506 114.167 653.937 113.752C655.541 113.479 657.159 113.203 658.853 113.005C662.168 112.608 665.009 112.608 668.56 113.204C682.055 115.689 696.023 117.578 710.938 117.777C714.963 117.876 718.514 118.075 722.302 118.672C727.325 119.55 732.163 118.875 736.816 118.226C737.427 118.141 738.034 118.056 738.638 117.976C739.19 117.909 739.717 117.799 740.243 117.689C741.295 117.468 742.347 117.247 743.61 117.379C749.943 117.954 756.028 117.334 762.045 116.721C764.351 116.486 766.647 116.252 768.942 116.087C770.363 115.988 771.547 115.988 772.967 115.988C776.518 116.087 779.833 115.888 783.384 115.192C789.566 113.971 796.166 113.336 802.757 112.701C804.748 112.51 806.739 112.318 808.716 112.111C811.84 111.834 814.164 112.133 816.562 112.442C817.617 112.578 818.686 112.715 819.844 112.806C824.852 113.143 829.86 112.696 834.868 112.25C835.779 112.169 836.689 112.088 837.6 112.011C838.299 111.938 838.998 111.861 839.697 111.785C844.683 111.24 849.692 110.693 854.883 111.216C856.067 111.315 857.487 111.315 858.434 111.116C867.904 108.83 878.321 108.532 888.975 108.333C890.496 108.333 891.727 107.896 893.041 107.43C894.387 106.953 895.818 106.445 897.735 106.345C898.319 106.345 898.903 106.277 899.471 106.212C900.284 106.119 901.063 106.029 901.76 106.146C905.232 106.719 908.835 106.691 912.431 106.664C915.7 106.639 918.964 106.615 922.12 107.041C929.227 107.969 936.439 107.836 943.616 107.703C947.198 107.637 950.771 107.571 954.318 107.637C954.871 107.67 955.397 107.67 955.905 107.67C956.922 107.67 957.87 107.67 958.817 107.935C962.605 108.929 966.156 109.327 969.234 107.438C970.181 106.842 972.311 106.544 973.969 106.941C977.52 107.637 981.071 107.438 984.622 107.239C984.851 107.239 985.104 107.219 985.366 107.198C985.918 107.153 986.508 107.105 986.99 107.239C991.607 108.661 997.024 108.907 1002.4 109.15C1005.29 109.281 1008.17 109.412 1010.9 109.725C1019.9 110.818 1028.89 110.818 1038.13 110.421C1040.62 110.326 1043.11 110.526 1045.62 110.728C1048.37 110.949 1051.15 111.173 1053.99 111.017C1057.9 110.818 1061.86 110.694 1065.83 110.57C1069.79 110.445 1073.76 110.321 1077.67 110.122C1080.98 110.023 1083.58 110.023 1086.66 110.719C1090.92 111.812 1095.66 112.309 1100.63 111.912C1102.76 111.713 1104.66 111.514 1106.08 110.719C1109.15 109.128 1113.18 108.631 1117.68 108.731C1120.4 108.78 1123.12 108.88 1125.84 108.979C1128.57 109.079 1131.29 109.178 1134.01 109.228C1136.14 109.228 1138.04 109.426 1139.69 110.023C1141.61 110.739 1143.91 110.649 1146.42 110.552C1146.7 110.541 1146.99 110.53 1147.27 110.52C1155.08 110.222 1161.95 109.725 1166.21 106.444C1166.92 105.848 1170.71 105.549 1172.84 105.649C1178.89 106.023 1184.81 105.722 1190.7 105.423C1192.64 105.324 1194.58 105.226 1196.51 105.152C1198.07 105.095 1199.63 105.071 1201.18 105.046C1205.07 104.985 1208.96 104.925 1212.85 104.357C1214.74 104.058 1217.35 104.058 1219.01 104.456C1226.89 106.427 1234.78 105.584 1242.54 104.755C1244.57 104.538 1246.59 104.322 1248.6 104.158C1255.94 103.561 1262.57 103.561 1268.96 105.052C1273.22 106.047 1277.25 106.444 1281.98 105.947L1283.33 105.809C1291.68 104.953 1300.42 104.058 1308.73 104.058C1314.04 104.058 1318.47 103.37 1322.92 102.68C1325.03 102.354 1327.13 102.027 1329.33 101.772C1335.49 101.076 1340.22 101.971 1344.72 103.362C1347.32 104.158 1349.93 104.555 1353.24 104.754C1357.53 104.962 1361.6 105.508 1365.67 106.056C1367.44 106.293 1369.21 106.532 1371 106.742V93V85.071V0Z" fill="white"/>
</g>
<defs>
<filter id="filter0_d_304_40" x="0" y="0" width="1375" height="128" filterUnits="userSpaceOnUse" color-interpolation-filters="sRGB">
<feFlood flood-opacity="0" result="BackgroundImageFix"/>
<feColorMatrix in="SourceAlpha" type="matrix" values="0 0 0 0 0 0 0 0 0 0 0 0 0 0 0 0 0 0 127 0" result="hardAlpha"/>
<feOffset dy="4"/>
<feGaussianBlur stdDeviation="2"/>
<feColorMatrix type="matrix" values="0 0 0 0 0 0 0 0 0 0 0 0 0 0 0 0 0 0 0.25 0"/>
<feBlend mode="normal" in2="BackgroundImageFix" result="effect1_dropShadow_304_40"/>
<feBlend mode="normal" in="SourceGraphic" in2="effect1_dropShadow_304_40" result="shape"/>
</filter>
</defs>
</svg>
